<?xml version="1.0" encoding="iso-8859-1"?>
<!-- Generator: Adobe Illustrator 19.0.0, SVG Export Plug-In . SVG Version: 6.00 Build 0)  -->
<svg version="1.1" id="Layer_1" xmlns="http://www.w3.org/2000/svg" xmlns:xlink="http://www.w3.org/1999/xlink" x="0px" y="0px"
	 viewBox="0 0 512 512" style="enable-background:new 0 0 512 512;" xml:space="preserve">
<g>
	<g>
		<path d="M256,0C118.927,0,6.68,108.291,0.296,243.812c-0.156,0.617-0.258,1.255-0.287,1.913c-0.03,0.708,0.023,1.4,0.136,2.072
			C0.058,250.523,0,253.255,0,256c0,141.159,114.841,256,256,256s256-114.841,256-256S397.159,0,256,0z M256,492.308
			c-129.966,0-235.756-105.471-236.296-235.313c43.738,5.469,214.142,39.167,265.03,233.561
			C275.313,491.703,265.726,492.308,256,492.308z M304.256,487.346c-53.79-209.38-238.414-244.553-283.824-250.058
			C28.699,132.243,105.963,46.3,206.798,24.859c0.875,36.541,17.745,241.691,282.261,270.211
			C473.02,391.046,398.946,467.619,304.256,487.346z M226.412,21.541c9.695-1.217,19.569-1.849,29.588-1.849
			c130.297,0,236.308,106.01,236.308,236.308c0,6.577-0.284,13.089-0.814,19.532C229.145,247.434,226.024,42.62,226.412,21.541z"/>
	</g>
</g>
<g>
</g>
<g>
</g>
<g>
</g>
<g>
</g>
<g>
</g>
<g>
</g>
<g>
</g>
<g>
</g>
<g>
</g>
<g>
</g>
<g>
</g>
<g>
</g>
<g>
</g>
<g>
</g>
<g>
</g>
</svg>
