<?xml version="1.0" encoding="utf-8"?>
<!-- Generator: Adobe Illustrator 23.1.0, SVG Export Plug-In . SVG Version: 6.00 Build 0)  -->
<svg version="1.1" id="Layer_1" xmlns="http://www.w3.org/2000/svg" xmlns:xlink="http://www.w3.org/1999/xlink" x="0px" y="0px"
	 viewBox="0 0 700 550" style="enable-background:new 0 0 700 550;" xml:space="preserve">
<style type="text/css">
	.st0{fill:#D5EFC8;}
	.st1{fill:#904D24;}
	.st2{fill:#558031;}
	.st3{fill:#FFBA55;}
	.st4{fill:#D77F4A;}
	.st5{fill:#F9977A;}
	.st6{fill:#376F92;}
	.st7{fill:#160B07;}
	.st8{fill:#F73C4F;}
	.st9{fill:#DD765E;}
	.st10{fill:#FFCB33;}
	.st11{fill:#DD2F22;}
	.st12{fill:#935B50;}
	.st13{fill:#C38F86;}
	.st14{fill:#7CA1B1;}
	.st15{fill:#FFFFFF;}
	.st16{fill:#FCFCFC;}
	.st17{fill:#F65B2B;}
	.st18{fill:none;}
</style>
<path class="st0" d="M477.69,343.89c-11.14,60.92-139.8,161.06-183.23,80.48c-22.86-42.42-90.64-103.69-142.87-140.13
	c-50.79-35.44,93.18-96.95,183.23-80.48S488.84,282.97,477.69,343.89z"/>
<path class="st0" d="M494.48,345.55c12.26-67.01-58.24-136.24-157.15-154.34c-36-6.58-84.44-2.08-129.6,12.05
	c-43.14,13.5-74.52,32.88-81.91,50.6c-4.13,9.9-0.63,19.09,10.11,26.59l0.61-0.87c-10.43-7.28-13.71-15.8-9.74-25.32
	c7.27-17.43,38.4-36.59,81.25-49.99c45-14.08,93.26-18.58,129.09-12.02c98.34,17.99,168.45,86.67,156.3,153.11L494.48,345.55z"/>
<path class="st1" d="M226.86,94.92h268.32c1.8,0,3.26,1.46,3.26,3.26l0,0V302.7c0,1.8-1.46,3.26-3.26,3.26l0,0H226.86
	c-1.8,0-3.26-1.46-3.26-3.26l0,0V98.18C223.6,96.38,225.06,94.92,226.86,94.92z"/>
<path class="st2" d="M233.42,102.05h255.2c1.7-0.02,3.08,1.34,3.1,3.04v190.69c-0.02,1.7-1.4,3.06-3.1,3.04h-255.2
	c-1.7,0.02-3.08-1.34-3.1-3.04V105.09C230.34,103.4,231.73,102.04,233.42,102.05z"/>
<path class="st2" d="M0,0"/>
<circle class="st3" cx="161.97" cy="162.39" r="26.32"/>
<path class="st4" d="M161.97,189.17c-14.79,0-26.79-11.99-26.79-26.79s11.99-26.79,26.79-26.79s26.79,11.99,26.79,26.79l0,0
	C188.74,177.17,176.75,189.16,161.97,189.17z M161.97,136.54c-14.28,0-25.85,11.57-25.85,25.85s11.57,25.85,25.85,25.85
	s25.85-11.57,25.85-25.85l0,0C187.8,148.12,176.23,136.55,161.97,136.54L161.97,136.54z"/>
<path class="st4" d="M161.97,164.73c-0.26,0-0.47-0.21-0.47-0.47v-16.97c0-0.26,0.21-0.47,0.47-0.47s0.47,0.21,0.47,0.47l0,0v16.97
	C162.43,164.52,162.22,164.73,161.97,164.73z"/>
<path class="st4" d="M176.57,168.24c-0.07,0-0.14-0.02-0.21-0.05l-17.61-8.83c-0.23-0.12-0.33-0.4-0.21-0.63
	c0.12-0.23,0.4-0.33,0.63-0.21l0,0l17.61,8.83c0.23,0.12,0.33,0.4,0.21,0.63C176.91,168.14,176.74,168.24,176.57,168.24
	L176.57,168.24z"/>
<rect x="203.77" y="195.21" class="st3" width="10.74" height="29.61"/>
<path class="st5" d="M543.88,433.46l0.43,12.37c0,0,34.04,9.56,34.72,5.5c0,0,2.62-0.04-15.07-10c-3.43-2.09-6.02-5.31-7.31-9.11
	L543.88,433.46z"/>
<path class="st6" d="M544,436.94v18.15h11l0.01-5.09c0,0,25.93,10.44,24.09,0.71c0,0-1.82,1.71-8.95,0.52l3.02-5.66l-6.82-2.98
	l-4.41,6.49l-12.11-2.61c-2.87-0.62-5.04-2.99-5.39-5.91L544,436.94z"/>
<path class="st6" d="M545.68,437.43c-0.96,0-1.6-0.03-1.7-0.04c-0.25-0.01-0.44-0.23-0.43-0.48c0.03-0.24,0.23-0.43,0.48-0.43
	c0.11,0.01,11.17,0.57,13.47-3.28c0.13-0.21,0.41-0.29,0.62-0.16s0.29,0.41,0.16,0.62C556.27,437.03,549.02,437.43,545.68,437.43z"
	/>
<path class="st7" d="M542.52,173.23c6.21,0.02,10.86,10.17,12.35,13.42c3.47,7.57,3.4,14.56,3.29,19.75
	c-0.1,4.69-0.64,5.59-2.64,17.4c-3.54,20.83-2.86,23.81-1.54,26.3c2.54,4.82,5.09,3.32,11.74,10.93c4.5,5.15,8.69,9.94,8.78,16.69
	c0.08,5.34-2.39,12.68-7.57,15.01c-9.74,4.37-24.78-10.9-30.98-18.72c-15.67-19.77-15.29-43-15.18-49.88
	c0.18-10.82,2.54-21.48,6.95-31.36C531.06,184.76,535.88,173.2,542.52,173.23z"/>
<path class="st7" d="M541.83,206.22c-4.21,4.86-22.97,1.91-16.28-2c-1.92-0.21-3.47-0.3-4.94-0.61
	c-9.7-2.05-20.33-14.89-17.75-25.41c2.24-9.17,13.7-13.24,16.48-14.23c7.1-2.86,15.18-1.83,21.33,2.73
	c3.67,2.72,6.53,6.38,8.27,10.6C550.81,181.44,551.44,195.14,541.83,206.22z"/>
<path class="st8" d="M546.04,267.65c0,0,5.46,47.08,10.9,165.42l-13.06,0.39L530.4,384.4l-9.07-77.99l-13.15,71.19l-6.8,56.68
	l-12.7-1.81l-3.63-70.73c0,0,5.89-80.26,16.32-98.85L546.04,267.65z"/>
<path class="st5" d="M514.51,203.36c0,0,2.08,10.27-4.03,11.75s-25.18,24.36-25.18,24.36l-10.03,12.4l-19.84-27.34l-7.06,5.73
	l17.78,36.3c1.69,3.45,5.86,4.88,9.32,3.19c0.26-0.13,0.51-0.27,0.75-0.43c6.68-4.37,16.49-11.44,20.22-17.46l3.97-2.65v13.67
	l43.43,4.63l8.63-30.61c0,0,1.02-15.93-13.38-25.49c0,0-5.04-1.93-8.21-10.03C530.87,201.39,516.72,203.89,514.51,203.36z"/>
<path class="st5" d="M567.06,252.35l-14.6-15.44l-13.38-25.49c0,0,11.31-2.25,24.33,13.3c8.29,10.04,15.86,20.64,22.65,31.75
	c0,0,4.23,5.5-1.69,7.62s-33.44,2.96-33.44,2.96l-2.91-8.52L567.06,252.35z"/>
<path class="st6" d="M539.86,210.19l-16.32,25.58l-13.67-21.61c0,0-22.05,12.35-25.13,24.69l12.13,13.45l3.53-3.09l-3.53,18.08
	c0,0-26.9,90.84-28.22,119.5c0,0,15.43,8.38,91.72,7.5c0,0,4.85-57.77-16.32-126.55l7.06-22.93l9.7,0.88l13.23-11.02
	C574.04,234.66,558.61,212.62,539.86,210.19z"/>
<path class="st6" d="M0,0"/>
<path class="st5" d="M550.92,267.06c0,0,1.85,15.29-3.39,18.15s-3.65-7.46-5.08-13.81c0,0-2.15,5.83-3.38,4.98s1.47-13.55,3.62-15.3
	c0,0,1.03-1.67,5.32-2.54L550.92,267.06z"/>
<path class="st5" d="M0,0"/>
<path class="st5" d="M455.42,224.52c-1.43-2.48-3.01-4.87-4.73-7.16c-0.38-0.44-0.75-0.89-1.1-1.35c-0.94-1.21-2.67-3.3-3.57-3.36
	c-1.27-0.08,2.35,5.93,2.35,5.93l-11-5.46c-0.27-0.14-0.56-0.22-0.86-0.24c-0.51-0.03-1.05,0.11,0.07,1.2
	c0.89,0.86,5.24,3.73,5.24,3.73l-6.43-2.46c0,0-3.49-0.87-1.03,1.11c1.87,1.37,3.93,2.47,6.11,3.25l-5.71-1.13
	c0,0-3.17-0.93-0.4,1.05c1.54,1.15,3.3,1.98,5.16,2.46c0,0,1.03,1.03-4.6-1.03c0,0-3.93-0.99,1.11,1.83c0,0,9.53,5.03,12.35,7.36
	L455.42,224.52z"/>
<path class="st5" d="M0,0"/>
<path class="st5" d="M501.31,433.46l-0.43,12.37c0,0-34.04,9.56-34.72,5.5c0,0-2.62-0.04,15.07-10c3.43-2.09,6.02-5.31,7.31-9.11
	L501.31,433.46z"/>
<path class="st6" d="M501.19,436.94l-0.13,18.15h-10.68l-0.52-2.12c0,0-27.77,4.71-23.77-2.25c0,0,1.82,1.71,8.95,0.52l-3.02-5.66
	l6.82-2.98l4.41,6.49l11.94-2.57c2.98-0.64,5.22-3.1,5.59-6.12L501.19,436.94z"/>
<path class="st6" d="M499.51,437.43c-3.35,0-10.59-0.4-12.6-3.76c-0.13-0.21-0.06-0.49,0.16-0.62s0.49-0.06,0.62,0.16
	c2.31,3.85,13.36,3.29,13.47,3.28c0.25-0.01,0.46,0.18,0.48,0.43c0.01,0.25-0.18,0.46-0.43,0.48
	C501.11,437.4,500.47,437.43,499.51,437.43z"/>
<path class="st9" d="M531.92,203.73c-5.07,5.4-11.58,7.74-16.76,5.36c-0.13-0.06-0.26-0.13-0.39-0.2c0.16-1.85,0.08-3.71-0.25-5.53
	c2.21,0.54,16.36-1.97,16.36-1.97C531.2,202.24,531.55,203.01,531.92,203.73z"/>
<path class="st5" d="M509.76,183.57c1.79-11.55,9.64-19.91,17.53-18.68c6.09,0.95,10.42,7.33,11.25,15.5
	c0.54-0.39,1.22-0.52,1.86-0.36c1.73,0.55,2.24,3.79,1.14,7.23c-0.93,2.9-2.7,5.02-4.28,5.28c-2.88,9.12-9.66,15.22-16.48,14.16
	C512.91,205.46,507.97,195.11,509.76,183.57z"/>
<path class="st9" d="M519.13,182.2c0.52,1.32,0.6,2.77,0.22,4.13c-0.32,1.37-0.83,2.68-1.52,3.91c-0.35,0.62-0.92,1.12-0.8,1.66
	c0.15,0.61,0.54,1.13,1.08,1.45c1.2,0.63,2.6,0.75,3.9,0.34c-1.3,0.63-2.82,0.64-4.12,0.02c-0.68-0.35-1.18-0.99-1.36-1.74
	c-0.06-0.41,0.04-0.82,0.28-1.15l0.55-0.87c0.68-1.18,1.21-2.43,1.58-3.74C519.37,184.92,519.44,183.53,519.13,182.2z"/>
<path class="st9" d="M0,0"/>
<circle class="st7" cx="525.4" cy="186.16" r="1.24"/>
<circle class="st7" cx="513.55" cy="185.24" r="1.24"/>
<path class="st7" d="M517.73,186.32c-1.12-0.81-2.39-1.39-3.75-1.69c-0.66-0.12-1.34-0.1-1.99,0.06c-0.67,0.18-1.31,0.46-1.89,0.83
	c0.47-0.56,1.08-0.98,1.77-1.24c0.7-0.26,1.47-0.33,2.2-0.19c0.72,0.14,1.42,0.41,2.04,0.81
	C516.73,185.27,517.28,185.75,517.73,186.32z"/>
<path class="st9" d="M540.8,183.97c-0.26-0.39-0.57-0.75-0.93-1.06c-0.27-0.28-0.71-0.31-1.02-0.09c-0.35,0.27-0.65,0.6-0.88,0.98
	c-0.28,0.38-0.5,0.81-0.8,1.21c0.08-0.49,0.23-0.97,0.44-1.42c0.2-0.49,0.53-0.92,0.96-1.23c0.25-0.18,0.57-0.25,0.87-0.2
	c0.29,0.06,0.55,0.21,0.73,0.44C540.49,182.99,540.71,183.47,540.8,183.97z"/>
<path class="st9" d="M538.95,187.81c-0.32-0.36-0.54-0.8-0.63-1.27c-0.11-0.47-0.15-0.94-0.12-1.42c0.03-0.47,0.11-0.94,0.25-1.39
	l0.24-0.66c0.11-0.21,0.2-0.42,0.33-0.63c-0.08,0.94-0.22,1.82-0.26,2.71c-0.03,0.44-0.04,0.88-0.02,1.33
	C538.75,186.93,538.82,187.38,538.95,187.81z"/>
<circle class="st10" cx="539.72" cy="190.84" r="2.46"/>
<path class="st11" d="M525.79,197.89c0,0-6.69,4.64-10.83,0.04"/>
<path class="st7" d="M521.26,167.04c1.74,0.33,2.75,1.61,4.77,4.15c3.91,4.92,6.41,11.82,9.01,12.94c0.29,0.14,0.62,0.19,0.94,0.15
	c0.99-0.19,1.33-1.5,2.35-3.36c0.77-1.41,1.12-1.66,1.58-2.45c1.6-3.14,1.62-6.86,0.03-10.01c-1.48-2.58-3.88-4.51-6.72-5.39
	c-5.91-2.21-11.4,0.22-12.8,0.83c-8.38,3.7-11.62,12.31-11.31,12.55C509.49,176.72,515.47,165.93,521.26,167.04z"/>
<path class="st8" d="M509.88,214.16c0,0,17.69,40.18,16.73,70.1s5.31,63.73,5.31,63.73s-4.33,4.29-11.02,0s-11.8,0-11.8,0
	s-6.75,1.43-8.68-2.86s3.18-51.92,2.06-63.11s0.84-51.03-6.33-58.25C496.15,223.77,499.36,211.77,509.88,214.16z"/>
<rect x="112.48" y="453.26" class="st12" width="475.05" height="1.82"/>
<rect x="326.64" y="327.9" class="st12" width="7.89" height="125.18"/>
<path class="st12" d="M113.84,321.85h234.44c0.75,0,1.36,0.61,1.36,1.36v3.33c0,0.75-0.61,1.36-1.36,1.36H113.84
	c-0.75,0-1.36-0.61-1.36-1.36v-3.33C112.48,322.46,113.09,321.85,113.84,321.85z"/>
<rect x="128.21" y="327.9" class="st12" width="7.89" height="125.18"/>
<path class="st13" d="M121.92,327.9h218.82l0,0v15.68c0,1.5-1.22,2.72-2.72,2.72l0,0H124.64c-1.5,0-2.72-1.22-2.72-2.72l0,0V327.9z"
	/>
<path class="st3" d="M157.75,317.82v0.38c0,2.01-1.63,3.64-3.64,3.64h-10.95c-2.01,0-3.64-1.63-3.64-3.64v-14.75
	c0-2.01,1.63-3.64,3.64-3.64h10.95c2.01,0,3.64,1.63,3.64,3.64V317.82L157.75,317.82z"/>
<path class="st14" d="M163.78,303.57h-6.03v2.19h4.94v9.88h-4.94v2.19h6.03c0.6,0,1.09-0.49,1.09-1.09l0,0v-12.07
	C164.88,304.06,164.39,303.57,163.78,303.57L163.78,303.57z"/>
<path class="st14" d="M149.36,307.35h3.07c0.4,0,0.73,0.33,0.73,0.73v3.07c0,0.4-0.33,0.73-0.73,0.73h-3.07
	c-0.4,0-0.73-0.33-0.73-0.73v-3.07C148.63,307.68,148.96,307.35,149.36,307.35z"/>
<rect x="150.38" y="299.81" class="st14" width="1.03" height="7.55"/>
<path class="st14" d="M0,0"/>
<path class="st15" d="M255.93,306.92c-3.99,0-7.12-6.91-7.12-15.73v-0.75h14.24v0.75C263.05,300.01,259.92,306.92,255.93,306.92z
	 M250.31,291.93c0.16,8.1,2.98,13.49,5.62,13.49c2.64,0,5.45-5.39,5.62-13.49H250.31z"/>
<path class="st15" d="M263.05,321.85h-14.24v-0.75c0-8.82,3.13-15.73,7.12-15.73c3.99,0,7.12,6.91,7.12,15.73V321.85z
	 M250.31,320.35h11.24c-0.16-8.1-2.98-13.49-5.62-13.49S250.47,312.25,250.31,320.35z"/>
<path class="st14" d="M267.4,320.35h-2.24v-28.42h2.24c0.41,0,0.75-0.33,0.75-0.74s-0.33-0.75-0.74-0.75l0,0h-22.94
	c-0.41,0-0.75,0.34-0.74,0.75c0,0.41,0.33,0.74,0.74,0.74h2.24v28.42h-2.24c-0.41,0-0.75,0.34-0.74,0.75c0,0.41,0.33,0.74,0.74,0.74
	h22.94c0.41,0,0.75-0.33,0.75-0.74C268.15,320.69,267.82,320.36,267.4,320.35L267.4,320.35z M248.19,291.93h15.48v28.42h-15.48
	L248.19,291.93z"/>
<path class="st16" d="M290.4,310.97c-0.05-1.18-0.02-2.34,0.02-3.51l0.76-3.34l1.5-6.68l1.5-6.68l0.75-3.34
	c0.49-1.06,0.93-2.13,1.48-3.18c0.05,1.18-0.02,2.34-0.02,3.5l-0.75,3.34l-1.5,6.68l-1.5,6.68l-0.74,3.34
	C291.42,308.86,290.95,309.92,290.4,310.97z"/>
<path class="st17" d="M293.76,314.16c-0.86-4.49-1.67-8.99-2.45-13.49c-0.4-2.25-0.89-4.49-1.11-6.76c-0.25-2.28-0.35-4.58-0.3-6.88
	l0.15-0.02c0.69,2.19,1.24,4.42,1.63,6.69c0.42,2.25,0.58,4.53,0.82,6.8c0.51,4.54,0.98,9.08,1.41,13.63L293.76,314.16z"/>
<path class="st3" d="M300.3,288.1c-0.14,1.18-0.35,2.32-0.57,3.46l-1.27,3.18l-2.54,6.36l-2.54,6.36l-1.27,3.18
	c-0.66,0.97-1.26,1.96-1.96,2.9c0.14-1.17,0.39-2.3,0.58-3.46l1.27-3.18l2.54-6.36l2.54-6.36l1.26-3.18
	C298.96,290.02,299.59,289.04,300.3,288.1z"/>
<rect x="284.45" y="288.39" transform="matrix(0.9741 -0.2259 0.2259 0.9741 -60.1828 72.687)" class="st3" width="6.11" height="21.83"/>
<path class="st14" d="M299.68,317.6v0.4c0.1,2.01-1.44,3.73-3.45,3.84h-10.36c-2.01-0.11-3.55-1.83-3.45-3.84v-15.55
	c-0.1-2.01,1.44-3.73,3.45-3.84h10.36c2.01,0.11,3.55,1.83,3.45,3.84V317.6L299.68,317.6z"/>
<rect x="282.42" y="304.51" class="st16" width="17.26" height="1.49"/>
<rect x="282.42" y="307.5" class="st16" width="17.26" height="1.49"/>
<path class="st15" d="M177.67,312.76h51.3l0,0v8.15l0,0h-51.3c-1.94,0-3.5-1.57-3.5-3.5v-1.14
	C174.17,314.32,175.74,312.76,177.67,312.76L177.67,312.76z"/>
<path class="st17" d="M230.58,321.11c0,0.41-0.33,0.74-0.74,0.74l0,0H176.6c-2.03,0-3.69-2.23-3.69-4.98c0-2.74,1.65-4.98,3.69-4.98
	h53.25c0.41,0,0.74,0.33,0.74,0.74l0,0v0.58c0,0.41-0.33,0.74-0.74,0.74l0,0H176.6c-1.19,0-2.16,1.31-2.16,2.92
	c0,1.61,0.97,2.92,2.16,2.92h53.25c0.41,0,0.74,0.33,0.74,0.74l0,0v0.58H230.58z"/>
<path class="st15" d="M169.67,302.8h51.3l0,0v8.15l0,0h-51.3c-1.94,0-3.5-1.57-3.5-3.5v-1.14
	C166.17,304.37,167.73,302.8,169.67,302.8L169.67,302.8z"/>
<path class="st3" d="M222.58,311.15c0,0.41-0.33,0.74-0.74,0.74l0,0h-53.25c-2.03,0-3.69-2.23-3.69-4.98c0-2.74,1.65-4.98,3.69-4.98
	h53.25c0.41,0,0.74,0.33,0.74,0.74l0,0v0.58c0,0.41-0.33,0.74-0.74,0.74l0,0h-53.25c-1.19,0-2.16,1.31-2.16,2.92
	c0,1.61,0.97,2.92,2.16,2.92h53.25c0.41,0,0.74,0.33,0.74,0.74l0,0V311.15z"/>
<path class="st15" d="M186.06,292.84h51.3l0,0v8.15l0,0h-51.3c-1.94,0-3.5-1.57-3.5-3.5v-1.14
	C182.55,294.41,184.12,292.84,186.06,292.84L186.06,292.84z"/>
<path class="st17" d="M238.96,301.2c0,0.41-0.33,0.74-0.74,0.74l0,0h-53.25c-2.03,0-3.69-2.23-3.69-4.98c0-2.74,1.65-4.98,3.69-4.98
	h53.25c0.41,0,0.74,0.33,0.74,0.74l0,0v0.58c0,0.41-0.33,0.74-0.74,0.74l0,0h-53.25c-1.19,0-2.16,1.31-2.16,2.92
	c0,1.61,0.97,2.92,2.16,2.92h53.25c0.41,0,0.74,0.33,0.74,0.74l0,0V301.2z"/>
<rect x="236.14" y="137.87" class="st18" width="181" height="88.55"/>
<text transform="matrix(1 0 0 1 -74 -187.7244)" style="font-family:'MyriadPro-Regular'; font-size:12px;">Lorem ipsum</text>
</svg>
