<?xml version="1.0" encoding="utf-8"?>
<!-- Generator: Adobe Illustrator 23.1.0, SVG Export Plug-In . SVG Version: 6.00 Build 0)  -->
<svg version="1.1" id="Layer_1" xmlns="http://www.w3.org/2000/svg" xmlns:xlink="http://www.w3.org/1999/xlink" x="0px" y="0px"
	 viewBox="0 0 500 500" style="enable-background:new 0 0 500 500;" xml:space="preserve">
<style type="text/css">
	.st0{fill:#BCBEC0;}
	.st1{fill:#305284;}
	.st2{fill:#5D7D5F;}
	.st3{fill:#FFFFFF;}
	.st4{fill:#E94358;}
	.st5{fill:#8A3B42;}
	.st6{fill:#E15B40;}
	.st7{fill:#5B2229;}
	.st8{fill:#F9B77A;}
	.st9{fill:#202023;}
	.st10{fill:#4E9352;}
	.st11{fill:#262C36;}
	.st12{clip-path:url(#SVGID_2_);}
	.st13{fill:#FAFCFD;}
	.st14{fill-rule:evenodd;clip-rule:evenodd;fill:#D0D9DB;}
	.st15{fill-rule:evenodd;clip-rule:evenodd;fill:#4F4E50;}
	.st16{fill-rule:evenodd;clip-rule:evenodd;fill:#292929;}
	.st17{fill-rule:evenodd;clip-rule:evenodd;fill:#8A3B42;}
	.st18{fill:#4F4E50;}
	.st19{fill-rule:evenodd;clip-rule:evenodd;fill:#F09271;}
	.st20{fill-rule:evenodd;clip-rule:evenodd;fill:#ED714B;}
	.st21{fill-rule:evenodd;clip-rule:evenodd;fill:#323233;}
	.st22{fill:#D0D9DB;}
	.st23{fill:#B5C2C8;}
	.st24{fill:#F9B87A;}
	.st25{fill:#E84254;}
	.st26{fill:#ED714B;}
	.st27{fill:#F09271;}
	.st28{fill-rule:evenodd;clip-rule:evenodd;fill:#B46F3E;}
	.st29{fill-rule:evenodd;clip-rule:evenodd;fill:#202023;}
	.st30{fill-rule:evenodd;clip-rule:evenodd;fill:#FFFFFF;}
	.st31{fill-rule:evenodd;clip-rule:evenodd;fill:#D56172;}
	.st32{fill-rule:evenodd;clip-rule:evenodd;fill:#B5C2C8;}
	.st33{fill:none;}
	.st34{font-family:'Jokerman-Regular';}
	.st35{font-size:18px;}
</style>
<g>
	<path class="st0" d="M415.13,452.9H84.87c-2.68,0-4.84,2.17-4.84,4.84c0,2.68,2.17,4.84,4.84,4.84h330.27
		c2.68,0,4.84-2.17,4.84-4.84C419.98,455.07,417.81,452.9,415.13,452.9z"/>
	<g>
		<g>
			<rect x="149.76" y="311.43" class="st1" width="45.54" height="10.56"/>
			<rect x="124.51" y="321.09" class="st2" width="25.26" height="0.9"/>
			<rect x="124.51" y="311.43" class="st1" width="25.26" height="0.9"/>
			<rect x="126.17" y="312.33" class="st3" width="23.59" height="8.76"/>
		</g>
		<g>
			<g>
				<rect x="154.43" y="300.87" class="st4" width="44.99" height="10.56"/>
			</g>
			<g>
				<rect x="129.18" y="310.53" class="st4" width="25.26" height="0.9"/>
			</g>
			<g>
				<rect x="129.18" y="300.87" class="st4" width="25.26" height="0.9"/>
			</g>
			<g>
				<rect x="130.84" y="301.77" class="st3" width="23.59" height="8.76"/>
			</g>
		</g>
	</g>
	<g>
		<polygon class="st5" points="118.8,333.52 114.68,457.86 118.72,458.4 131.19,335.19 		"/>
		<polygon class="st5" points="298.56,333.52 294.44,457.86 298.48,458.4 310.95,335.19 		"/>
		<polygon class="st5" points="188.06,333.52 192.18,457.86 188.14,458.4 175.68,335.19 		"/>
		<polygon class="st5" points="351.22,333.52 355.34,457.86 351.3,458.4 338.83,335.19 		"/>
		<line class="st5" x1="118.72" y1="458.4" x2="131.19" y2="335.19"/>
		<line class="st5" x1="298.48" y1="458.4" x2="310.95" y2="335.19"/>
		<polygon class="st5" points="188.06,333.52 192.18,457.86 188.14,458.4 175.68,335.19 		"/>
		<polygon class="st5" points="351.22,333.52 355.34,457.86 351.3,458.4 338.83,335.19 		"/>
		<rect x="108.67" y="320.4" class="st6" width="62.64" height="18.17"/>
		<polygon class="st7" points="171.31,320.4 108.67,320.4 108.67,338.58 171.31,338.58 359.09,338.58 359.09,320.4 		"/>
	</g>
	<g>
		<g>
			<polygon class="st1" points="217.1,302.31 215.79,286.77 218.4,286.66 219.67,305.97 			"/>
		</g>
		<g>
			<polygon class="st5" points="222.06,300.46 220.46,281.48 222.96,281.83 224.43,304.25 			"/>
		</g>
		<g>
			<polygon class="st4" points="225.39,300.76 227.05,274.13 229.64,274.43 227.35,304.78 			"/>
		</g>
		<g>
			<polygon class="st8" points="215.63,297.68 215.63,297.68 218.97,320.4 234.24,320.4 236.81,298.46 			"/>
		</g>
	</g>
	<g>
		<g>
			<g>
				<rect x="122.23" y="37.41" class="st9" width="255.54" height="181.41"/>
			</g>
			<g>
				<rect x="134.13" y="47.95" class="st10" width="231.74" height="160.34"/>
			</g>
		</g>
		<g>
			<path class="st11" d="M170.27,208.29h-15.3c-2.57,0-4.65-2.08-4.65-4.65v-1.16h24.59v1.16
				C174.91,206.21,172.83,208.29,170.27,208.29z"/>
			<rect x="150.32" y="196.68" class="st8" width="24.59" height="5.81"/>
		</g>
	</g>
	<g>
		<g>
			<path class="st3" d="M217.7,131.89c4.16,5.77,6.57,12.73,5.81,19.69c-0.75,6.91-4.55,13.62-10.65,18.07
				c-3.02,2.24-6.52,3.98-10.3,5c-3.77,1.01-7.78,1.37-11.72,1c-3.94-0.37-7.79-1.4-11.34-2.95l-1.33-0.58l-1.28-0.67
				c-0.84-0.46-1.71-0.86-2.54-1.43c-1.66-1.1-3.1-2.47-4.23-4.03c-2.11-3-3.8-6.27-4.82-9.74c-1.02-3.46-1.33-7.1-0.84-10.66
				c1.02-7.11,5.27-13.76,11.55-17.98c3.11-2.13,6.67-3.72,10.42-4.6c3.76-0.87,7.68-1.04,11.49-0.59
				c3.82,0.44,7.51,1.54,10.93,3.09l1.29,0.58l1.23,0.66c0.81,0.45,1.66,0.86,2.42,1.39C215.34,129.15,216.66,130.44,217.7,131.89z
				 M217.7,131.89c-1.05-1.44-2.38-2.72-3.92-3.74c-0.76-0.52-1.61-0.92-2.43-1.37l-1.24-0.65l-1.29-0.56
				c-3.43-1.5-7.15-2.49-10.93-2.85c-3.78-0.35-7.63-0.01-11.24,0.96c-3.61,0.99-6.97,2.66-9.86,4.8
				c-5.85,4.26-9.47,10.7-10.18,17.31c-0.72,6.66,1.58,13.35,5.61,18.95c0.95,1.34,2.17,2.53,3.59,3.48
				c0.68,0.48,1.52,0.88,2.31,1.32l1.2,0.64l1.24,0.56c3.31,1.5,6.86,2.56,10.52,2.98c3.66,0.43,7.41,0.28,11.01-0.56
				c3.6-0.84,7-2.36,9.99-4.4c6.02-4.04,10.09-10.41,11.08-17.22c0.47-3.41,0.17-6.91-0.81-10.24
				C221.38,137.98,219.75,134.81,217.7,131.89z"/>
		</g>
		<g>
			<path class="st3" d="M194.44,148.63c2.42-0.47,4.85-0.71,7.27-0.88c2.42-0.16,4.85-0.25,7.27-0.25c2.42-0.01,4.85,0.08,7.27,0.25
				c2.42,0.17,4.85,0.41,7.27,0.88c-2.42,0.47-4.85,0.72-7.27,0.88c-2.42,0.16-4.85,0.25-7.27,0.25c-2.42,0-4.85-0.09-7.27-0.25
				C199.29,149.34,196.86,149.09,194.44,148.63z"/>
		</g>
		<g>
			<path class="st3" d="M194.45,122.69c0.52,2.19,0.79,4.38,0.97,6.57c0.18,2.19,0.28,4.38,0.28,6.57c0.01,2.19-0.09,4.38-0.27,6.57
				c-0.18,2.19-0.45,4.38-0.97,6.57c-0.52-2.19-0.79-4.38-0.98-6.57c-0.18-2.19-0.28-4.38-0.27-6.57c0-2.19,0.09-4.38,0.28-6.57
				C193.66,127.07,193.93,124.88,194.45,122.69z"/>
		</g>
		<g>
			<path class="st3" d="M197.1,146.93c2.1,2.99-1.4,6.16-4.71,4.26c-0.23-0.13-0.44-0.32-0.59-0.53c-2.1-2.99,1.4-6.16,4.71-4.26
				C196.75,146.54,196.95,146.72,197.1,146.93z"/>
		</g>
		<g>
			<path class="st3" d="M194.45,148.8"/>
		</g>
		<g>
			<defs>
				<path id="SVGID_1_" d="M194.07,122.43l0.72,26.53c0,0,28.75-0.09,28.73-0.6c-0.01-0.5-0.36-21.26-21.05-25.03
					C194.16,122.04,194.07,122.43,194.07,122.43z"/>
			</defs>
			<clipPath id="SVGID_2_">
				<use xlink:href="#SVGID_1_"  style="overflow:visible;"/>
			</clipPath>
			<g class="st12">
				<path class="st13" d="M207.24,116.5c-2.63,2.39-13.82,12.57-14.07,12.57l-0.34-1.01v2.83h0.47l-0.4-0.36l14.89-13.46
					C207.6,116.89,207.42,116.69,207.24,116.5z"/>
			</g>
			<g class="st12">
				<path class="st13" d="M225.98,137.38c-2.63,2.39-13.82,12.57-14.07,12.57l-0.34-1.01v2.83h0.47l-0.4-0.36l14.89-13.46
					C226.35,137.76,226.17,137.57,225.98,137.38z"/>
			</g>
			<g class="st12">
				<path class="st13" d="M228.51,139.93c-2.63,2.39-13.82,12.57-14.07,12.57l-0.34-1.01v2.83h0.47l-0.4-0.36l14.89-13.46
					C228.87,140.31,228.7,140.12,228.51,139.93z"/>
			</g>
			<g class="st12">
				<path class="st13" d="M207.59,119.7c-2.63,2.39-13.82,12.57-14.07,12.57l-0.34-1.01v2.83h0.47l-0.4-0.36l14.89-13.46
					C207.95,120.09,207.77,119.89,207.59,119.7z"/>
			</g>
			<g class="st12">
				<path class="st13" d="M221.62,136.72c-2.63,2.39-13.82,12.57-14.07,12.57l-0.34-1.01v2.83h0.47l-0.4-0.36l14.89-13.46
					C221.98,137.11,221.8,136.92,221.62,136.72z"/>
			</g>
			<g class="st12">
				<path class="st13" d="M208.86,121.97c-2.63,2.39-13.82,12.57-14.07,12.57l-0.34-1.01v2.83h0.47l-0.4-0.36l14.89-13.46
					C209.22,122.35,209.05,122.16,208.86,121.97z"/>
			</g>
			<g class="st12">
				<path class="st13" d="M219.1,133.49c-3.36,3.04-17.69,15.96-18.01,15.96l-0.44-1.28v3.59h0.6l-0.51-0.46l19.06-17.09
					C219.57,133.98,219.34,133.73,219.1,133.49z"/>
			</g>
			<g class="st12">
				<path class="st13" d="M212.99,122.43c-3.38,3.08-17.78,16.16-18.1,16.16l-0.44-1.29v3.64h0.61l-0.51-0.46l19.15-17.31
					C213.45,122.93,213.22,122.68,212.99,122.43z"/>
			</g>
			<g class="st12">
				<path class="st13" d="M217.52,129.16c-3.91,3.43-20.57,18.05-20.94,18.05l-0.51-1.44v4.06h0.7l-0.59-0.52l22.16-19.33
					C218.06,129.72,217.79,129.44,217.52,129.16z"/>
			</g>
			<g class="st12">
				<path class="st13" d="M214.94,125.8c-3.81,3.46-20.01,18.19-20.37,18.19l-0.49-1.46v4.1h0.68l-0.58-0.52l21.56-19.49
					C215.47,126.35,215.21,126.07,214.94,125.8z"/>
			</g>
		</g>
	</g>
	<path class="st13" d="M236.64,134.75c-1.23,0.44-1.58,1.33-2.36,2.32c-0.28,0.35-0.56,0.7-0.84,1.05c-0.73-1.24-1.66-2.35-2.37-3.6
		c0.04-0.04,0.06-0.07,0.02-0.06c-0.05,0.01-0.1,0.01-0.15,0.02c-0.13,0.01-1.18,0.43-1.1,0.58c0.75,1.33,1.75,2.48,2.5,3.8
		c0.06,0.11,0.13,0.23,0.19,0.34c-0.16,0.19-0.32,0.39-0.49,0.57c-0.66,0.73-1.45,1.45-1.76,2.42c0,0,1.09-0.19,1.18-0.5
		c0.24-0.75,0.76-1.39,1.33-2c0.2,0.36,0.41,0.71,0.67,1.02c0.37,0.44,0.89,0.72,1.1,1.27c0.04,0.11,1.21-0.36,1.2-0.57
		c0-0.05,0-0.1,0-0.15c0,0-0.02,0.01-0.06,0.02c-0.22-0.43-0.64-0.68-0.96-1.04c-0.41-0.47-0.71-1.03-1.01-1.58
		c0.08-0.09,0.16-0.18,0.23-0.27c0.49-0.61,1.01-1.2,1.49-1.82c0.08-0.11,1.21-1.57,0.65-1.36
		C236.35,135.12,237.41,134.48,236.64,134.75z M243.93,138.13c-0.03,0.01-0.07,0.03-0.11,0.05c-0.13-0.03-0.26-0.06-0.38-0.06
		c-0.22,0-0.44,0.05-0.66,0.08c-0.13,0.02-0.26,0.02-0.39,0.03c-0.17-0.9-0.23-1.76-0.14-2.69c-0.01,0.07-1.17,0.23-1.2,0.57
		c-0.07,0.75-0.05,1.46,0.05,2.17c-0.12,0.01-0.24,0.01-0.35,0.03c-0.24,0.03-1,0.28-1.09,0.55c-0.02,0.06-0.04,0.12-0.06,0.18
		c-0.05,0.14,0.44-0.06,0.48-0.08c0.05-0.02,0.14-0.05,0.23-0.09c0.3-0.01,0.59-0.01,0.89-0.02c0.02,0.12,0.04,0.25,0.07,0.37
		c0.18,0.76,0.52,1.71,0.48,2.49c0.02-0.01,0.03-0.02,0.05-0.02c0.23-0.07,1.13-0.27,1.15-0.55l0.01-0.15c0,0-0.01,0.01-0.01,0.01
		c0-0.71-0.27-1.52-0.44-2.21c0.1,0,0.2,0.01,0.3,0.02c0.51,0.06,1.37-0.26,1.6-0.74C244.47,137.92,243.96,138.11,243.93,138.13z
		 M251.64,135.31c-0.44,1.69-0.89,3.54-1.46,5.28c-0.63-0.39-1.03-1.49-1.28-2.06c-0.37-0.82-0.75-1.89-0.86-2.78
		c0-0.02-1.24,0.3-1.2,0.57c0.12,0.99,0.55,2.14,0.98,3.03c0.33,0.67,0.74,1.88,1.6,1.97c0.17,0.02,0.39-0.08,0.57-0.18
		c-0.18,0.51-0.36,1.01-0.56,1.49c-0.39,0.94-0.8,1.99-1.28,2.88c-0.69,1.29-1.66,1.18-2.92,0.62c-0.28-0.12-1.15,0.6-1.14,0.6
		c1.81,0.8,4.12,0.42,5.12-1.43c1.74-3.23,2.72-7.04,3.63-10.57C252.81,134.87,251.73,134.94,251.64,135.31z M256.5,137.61
		c-0.22-0.05-0.59,0.18-0.77,0.28c-0.05,0.03-0.48,0.29-0.36,0.32c0.97,0.21,1.98-0.54,2.94-0.33c0.22,0.05,0.59-0.18,0.77-0.28
		c0.05-0.03,0.48-0.29,0.36-0.32C258.47,137.06,257.46,137.82,256.5,137.61z M258.46,140.03c-0.04,0.02-0.12,0.05-0.2,0.08
		c-0.39,0.03-0.78,0.06-1.17,0.03c-0.25-0.02-0.56,0.17-0.77,0.28c-0.05,0.03-0.47,0.31-0.36,0.32c0.59,0.05,1.17-0.05,1.76-0.06
		c0.21,0,0.43-0.12,0.61-0.2c0.13-0.06,0.5-0.19,0.55-0.35c0.02-0.06,0.04-0.12,0.06-0.18C258.98,139.81,258.5,140.01,258.46,140.03
		z M268.57,131.62c-1-0.2-2.22,0.47-3,1.04c-0.75,0.54-1.88,2.32-0.51,2.86c0.29,0.12,1.14-0.6,1.14-0.6
		c-1.68-0.67,0.53-3.89,2.28-2.17c0.98,0.97,0.44,2.36-0.4,3.26c-0.73,0.78-1.75,1.23-2.44,2.04c-0.81,0.95-0.73,2.28-0.85,3.46
		c0.01-0.07,1.17-0.23,1.2-0.57c0.2-1.93,0.19-2.91,1.77-4.15c0.63-0.5,1.33-0.95,1.82-1.61
		C270.54,133.9,270.41,131.98,268.57,131.62z M266.28,143.96c0.02-0.02,0.03-0.05,0.03-0.07c0.03-0.21-0.08-0.24-0.26-0.22
		c-0.23,0.02-0.5,0.17-0.7,0.28c-0.1,0.05-0.39,0.17-0.4,0.3c-0.02,0.25,0.2,0.28,0.29,0.47c0.09,0.18,0.05,0.39,0.01,0.59
		c-0.01,0.02-0.02,0.04-0.02,0.06l-0.02,0.15c-0.01,0.07,0.61-0.17,0.65-0.19c0.14-0.06,0.53-0.2,0.56-0.38
		c0.04-0.24,0.15-0.56,0.03-0.79C266.4,144.07,266.34,144.01,266.28,143.96z"/>
	<path class="st5" d="M219.91,300.99c0,0.6-0.49,1.09-1.09,1.09c-0.6,0-1.09-0.49-1.09-1.09c0-0.6,0.49-1.09,1.09-1.09
		C219.42,299.9,219.91,300.39,219.91,300.99z"/>
	<path class="st5" d="M224.43,300.99c0,0.6-0.49,1.09-1.09,1.09s-1.09-0.49-1.09-1.09c0-0.6,0.49-1.09,1.09-1.09
		S224.43,300.39,224.43,300.99z"/>
	<path class="st5" d="M229.28,300.87c0,0.6-0.49,1.09-1.09,1.09c-0.6,0-1.09-0.49-1.09-1.09c0-0.6,0.49-1.09,1.09-1.09
		C228.79,299.78,229.28,300.27,229.28,300.87z"/>
	<path class="st5" d="M233.88,300.87c0,0.6-0.49,1.09-1.09,1.09c-0.6,0-1.09-0.49-1.09-1.09c0-0.6,0.49-1.09,1.09-1.09
		C233.39,299.78,233.88,300.27,233.88,300.87z"/>
	<g>
		<path class="st14" d="M345.29,452.9c0.06,0.4,0.1,0.68,0.12,0.8c0.15,0.81,0.69,3.83-2.53,3.83c-3.22,0-20.97,0-23,0
			c-2.03,0-1.78-1.57-1.78-2.47c0-0.38,0.08-1.21,0.26-2.16H345.29z"/>
		<g>
			<g>
				<path class="st15" d="M340.42,436.92c0,0-8.82,8.63-12.01,9.31c-3.2,0.68-10.19,1.37-11.68,2.33c-1.49,0.96-2.86,5-3.03,5.75
					c-0.16,0.75-0.55,3.42,1.6,3.42c2.15,0,37.79,0,39.44,0c1.65,0,1.98-1.03,1.98-2.53c0-1.51-0.99-3.01-0.99-3.01s0-6.57,0-8.42
					c0-1.85-0.88-3.35-2.81-3.49c-3.33-0.24-6.96,1.89-9.11-2.01C342.86,436.54,342.44,435.2,340.42,436.92z"/>
			</g>
			<g>
				<path class="st16" d="M340.42,436.92c0,0-8.45,8.27-11.8,9.26c1.22,1.5,3.33,2.23,4.25,2.15c1.21-0.11,10.32-4.74,11.15-5.98
					c0.82-1.24-0.04-3.79-0.04-3.79h0c-0.06-0.09-0.12-0.19-0.17-0.29C342.86,436.54,342.44,435.2,340.42,436.92z"/>
			</g>
			<g>
				<path class="st17" d="M336.86,256.52l-2.65,5.48l-0.71,8.4c0,0-2.92,4.63-3.43,6.01c-0.51,1.39-2.28,12.72-2.47,14.8
					c-0.19,2.08,9.01,94.59,10.27,111.24c1.26,16.65-0.17,34.69-0.34,36.31c-0.17,1.62,7.66,4.39,10.52,4.63
					c1.67,0.14,5.17-0.32,7.93-0.98l0.05-0.01l0,0c1.1-0.29,1.17-1.66,1.17-1.66l0.76-29.29l0,0c-0.09-4.36-0.08-16.54,0.1-21.6
					c0.18-5.32,2.71-97.83,2.71-97.83l-7.35-33.07L336.86,256.52z"/>
			</g>
			<g>
				<path class="st5" d="M337.8,435.4c-0.12,1.81-0.22,3-0.26,3.36c-0.17,1.62,7.66,4.39,10.52,4.63c1.67,0.14,5.17-0.32,7.93-0.98
					l0.05-0.01l0,0c1.1-0.29,1.17-1.66,1.17-1.66l0.76-29.29c-0.09-4.36-0.08-16.54,0.1-21.6c0.18-5.32,2.71-97.83,2.71-97.83
					l-3.76-16.94c-1.89,0.3-3.27,2.22-3.22,7.24c0,0,0.92,78.13,0,107.2C352.94,416.49,348.63,431.52,337.8,435.4z"/>
			</g>
			<g>
				<path class="st15" d="M380.75,441.26c0,0,0.36-5.14,3.28-5.14c2.92,0,3.77,0,5.7,0c1.93,0,3.82,3.15,4.35,5.46
					c0,0,1.88,0.53,2.29,2.52c0.4,1.99,1.3,9.44,1.44,10.18c0.14,0.74,0.63,3.47-2.29,3.47c-2.92,0-18.98,0-20.82,0
					c-1.84,0-1.62-1.42-1.62-2.23c0-0.81,0.4-3.83,1.39-5.41C375.45,448.53,380.75,441.26,380.75,441.26z"/>
			</g>
			<g>
				<path class="st16" d="M380.75,441.26c0,0,0.36-5.14,3.28-5.14c2.92,0,3.77,0,5.7,0c1.93,0,3.82,3.15,4.35,5.46l-2.34,5.18
					c0,0-1.04,1.17-3.08,1.17c-2.04,0-6.59,0-6.59,0s-1.73-0.35-1.65-2.03C380.5,444.22,380.75,441.26,380.75,441.26z"/>
				<path class="st18" d="M388.66,448.06h-6.59c-0.05-0.01-1.87-0.4-1.78-2.17c0.09-1.65,0.33-4.58,0.33-4.64
					c0.02-0.23,0.41-5.27,3.41-5.27h5.7c2.05,0,3.96,3.29,4.49,5.56l0.01,0.04l-0.02,0.04l-2.37,5.22
					C391.79,446.9,390.73,448.06,388.66,448.06z M384.03,436.26c-2.76,0-3.14,4.97-3.14,5.02v0c0,0.03-0.25,2.98-0.33,4.63
					c-0.08,1.54,1.48,1.88,1.54,1.89l6.57,0c1.83,0,2.84-0.98,2.97-1.11l2.32-5.12c-0.53-2.23-2.38-5.31-4.21-5.31H384.03z"/>
			</g>
			<g>
				<path class="st17" d="M383.5,256.95l1.21,3.96c0,0,3.83,2.55,4.07,3.82c0.24,1.27,1.35,4.06,1.71,5.91
					c0.36,1.85-1.6,6.32-0.99,7.71c0.6,1.39,3.86,69.43,3.86,77.51c0,8.08,0.23,7.73,0.6,13.95h0l2.52,70.02c0,0,0.4,2.29-2.23,2.9
					c-2.63,0.61-12.77,0.16-14.58-0.23c-1.31-0.48-2.31-0.96-2.7-1.3c-1.21-1.04-0.84-18.39-1.08-21.05
					c-0.24-2.66-5.55-56.32-6.99-65.34c-1.45-9.02-10.64-70.14-12.81-78.93c-2.17-8.79-10.33-13.58-10.33-13.58L383.5,256.95z"/>
			</g>
			<g>
				<g>
					<path class="st5" d="M391.19,305.52c-0.74-14.51-1.45-26.6-1.7-27.18c-0.6-1.39,1.36-5.86,0.99-7.71
						c-0.36-1.85-1.47-4.63-1.71-5.91c-0.24-1.27-4.07-3.82-4.07-3.82l-1.21-3.96l-10.72,1.52l-13.82,22.72
						C358.95,281.19,380.33,269.61,391.19,305.52z"/>
				</g>
				<g>
					<path class="st5" d="M376.82,440.98c0.04,0.09,0.09,0.17,0.14,0.21c0.39,0.34,1.39,0.83,2.7,1.3
						c1.81,0.39,11.95,0.84,14.58,0.23c2.63-0.61,2.23-2.9,2.23-2.9l-0.67-18.61C392.58,434.63,386.58,441.49,376.82,440.98z"/>
				</g>
			</g>
			<g>
				<path class="st19" d="M287.16,178.11l-3.03-4.24l-2.66-4.18c0,0-2.72-8.59-3.64-9.67c-0.92-1.08-5.51-4.17-6.86-5.11
					c-1.36-0.94-7.36-2.2-8.41-2.47c-1.05-0.27-0.69,2.07,1.02,2.64c1.71,0.57,3.16,1.08,3.16,1.08l3.83,2.97
					c0,0-3.38-1.68-3.73-1.84c-0.35-0.15-1.11-0.36-2.26,0.11c-1.15,0.47-1.2,1.47-1.17,2.39c0.03,0.92,1.31,1.39,2.02,0.54
					l2.41,1.91l-2.07-0.65c0,0-0.75-0.09-1.21,0.44c-0.46,0.53-0.6,1.83-0.6,2.37c0,0.55,1.3,1.16,1.3,1.16s-0.59,0.49-0.76,0.95
					c-0.16,0.46,0.17,2,0.45,2.57c0.27,0.57,5.31,5.21,6.56,6.14c1.25,0.93,2.77,0.95,2.77,0.95l4.3,6.38L287.16,178.11z"/>
			</g>
			<g>
				<path class="st20" d="M285.7,176.05l-1.56-2.18l-1.63-2.57c-1.31,1.87-3.16,4.03-7.03,6.61l2.64,3.92
					c3.27-2.53,6.88-5.26,7.23-5.26C285.44,176.57,285.56,176.38,285.7,176.05z"/>
			</g>
			<g>
				<path class="st21" d="M247.62,89.99l19.52,76.38c0.36,0.19,0.9,0.46,1.1,0.54c0.22,0.09,0.64-0.13,0.86-0.25l-1.14-4.3
					c-0.15-0.13-0.31-0.27-0.49-0.44c-0.9-0.84-0.46-1.94-0.25-2.35l-18.48-69.88c-0.08-0.31-0.4-0.5-0.71-0.42
					C247.72,89.35,247.53,89.68,247.62,89.99L247.62,89.99z M268.92,169.69c-0.13,0.05-0.57,0.02-0.94-0.01l2.21,8.64
					c0.19,0.74,2.03,0.15,1.84-0.6l-2.41-9.1C269.54,168.88,269.13,169.62,268.92,169.69z"/>
			</g>
			<g>
				<path class="st22" d="M336.41,174.73c0,0-19.69,18.15-25.21,25.75c-5.52,7.6-12.37,20.63-9.4,24.29
					c2.97,3.66,11.76,9.67,30.34-13.45C350.73,188.19,336.41,174.73,336.41,174.73z"/>
			</g>
			<g>
				<path class="st22" d="M276.77,182.96c0,0,4.22-7.98,11.32-8.24c0,0,25.32,28.46,28.12,39.07c2.8,10.6-2.78,14.56-8.7,14.37
					C301.58,227.96,285.34,207,276.77,182.96z"/>
			</g>
			<g>
				<path class="st23" d="M318.06,202.24c-0.77-2.59-2.02-4.56-3.3-6.05c-1.45,1.62-2.68,3.08-3.55,4.28
					c-0.41,0.56-0.82,1.15-1.23,1.77c0.01,0.01,7.64,7.99,6.98,15.92C316.95,218.17,320.24,209.53,318.06,202.24z"/>
			</g>
			<g>
				<path class="st24" d="M335.75,174.77c2.85-0.75,24.76-6.13,45.36,0.34c2.82,0.89,4.85,3.34,5.11,6.28
					c0.81,9.19,0.5,28.81,0.64,40.8c0.18,15.21,5.41,45.08,4.14,50.29c-9.48,11.73-53.07,9.45-60.24,2.85
					c-1.98-1.1-2.27-27.23-1.98-36.92c0.28-9.47,2.06-57.7,6.35-63.25C335.29,174.97,335.51,174.84,335.75,174.77z"/>
			</g>
			<g>
				<path class="st8" d="M386.23,181.39c-0.22-2.5-1.72-4.63-3.9-5.77c-0.12,2.31-2.16,41.29-0.53,61
					c1.69,20.32,5.91,38.5-19.91,42.06c-7.04,0.97-12.59,1.24-16.97,1.12c15.88,2.24,39.41,0.93,46.08-7.32
					c1.27-5.21-3.96-35.08-4.14-50.29C386.72,210.21,387.04,190.58,386.23,181.39z"/>
			</g>
			<g>
				<path class="st22" d="M359.09,199.47l8.36-27.09c-6.56-0.66-12.77-0.46-17.95,0.05L359.09,199.47z"/>
			</g>
			<g>
				<polygon class="st25" points="357.23,194.22 359.09,199.47 361.9,190.38 360.89,182.8 357.23,183.92 				"/>
			</g>
			<g>
				<path class="st25" d="M354.49,180.6c0,0,0.95,4.73,2.46,4.97c1.51,0.25,4.12,0.6,4.81-0.53c0.69-1.14,2.28-5.26,2.28-5.26
					l-3.9-3.99l-4.56,0.2l-1.78,2.53L354.49,180.6z"/>
			</g>
			<g>
				<path class="st23" d="M352.58,169.77l-5.07,1.57c-1.03,0.32-1.5,1.52-0.94,2.45l6.67,11.18c0.52,0.88,1.83,0.79,2.23-0.15
					l2.93-6.91c0.19-0.45,0.83-0.47,1.05-0.03l3.31,6.62c0.51,1.01,1.97,0.96,2.4-0.09l4.59-11.16c0.41-0.99-0.13-2.11-1.15-2.41
					l-3.53-1.06H352.58z"/>
			</g>
			<g>
				<g>
					<path class="st26" d="M378.58,131.32c0,0,3.53-5.57,7.06-2.01c3.53,3.57,1.9,12.04-7.06,12.7V131.32z"/>
				</g>
				<g>
					<path class="st26" d="M338.37,131.32c0,0-3.53-5.57-7.06-2.01c-3.53,3.57-1.9,12.04,7.06,12.7V131.32z"/>
				</g>
				<g>
					<path class="st26" d="M353.68,158.45l-1.44,14.71c0,0,2.31,3.59,6.63,3.59c4.33,0,6.63-3.59,6.63-3.59l-2.02-14.71H353.68z"/>
				</g>
				<g>
					<path class="st27" d="M358.34,163.79L358.34,163.79c-12.96,0-23.47-10.51-23.47-23.47v-12.42c0-12.96,10.51-23.47,23.47-23.47
						l0,0c12.96,0,23.47,10.51,23.47,23.47v12.42C381.81,153.28,371.3,163.79,358.34,163.79z"/>
				</g>
			</g>
			<g>
				<path class="st28" d="M332.34,198.56h29.9c0.74,0,1.34,1.02,1.34,2.27v39.9c0,1.25-0.6,2.27-1.34,2.27h-29.9
					c-0.74,0-1.34-1.02-1.34-2.27v-39.9C331,199.58,331.6,198.56,332.34,198.56z"/>
			</g>
			<g>
				<path class="st14" d="M332.31,198.56h29.07c0.72,0,1.31,1.02,1.31,2.27v39.9c0,1.25-0.59,2.27-1.31,2.27h-29.07
					c-0.72,0-1.31-1.02-1.31-2.27v-39.9C331,199.58,331.59,198.56,332.31,198.56z"/>
			</g>
			<g>
				<path class="st28" d="M332.26,198.56h27.94c0.69,0,1.25,1.02,1.25,2.27v39.9c0,1.25-0.56,2.27-1.25,2.27h-27.94
					c-0.69,0-1.26-1.02-1.26-2.27v-39.9C331,199.58,331.56,198.56,332.26,198.56z"/>
			</g>
			<g>
				<path class="st29" d="M335.95,141.12c1.33-0.68,2.4-4.37,1.37-9.39c0,0,1.78-8.68-1.54-15.87c-3.32-7.19-4.67-1.88-4.67-1.88
					s-2.94,2.82,0.26,15.98c0.67,2.78,1.67,5.52,3.29,7.87C335.26,138.72,335.36,140.2,335.95,141.12z"/>
			</g>
			<g>
				<path class="st29" d="M381.96,139.36c-1.4-0.53-2.85-4.09-2.36-9.19c0,0-5.12-8.05-2.58-15.55c2.54-7.5,6.88-2.76,6.88-2.76
					s4.07,1.58,1.18,18.03c-0.35,1.99-0.92,3.94-1.68,5.81C382.76,137.27,382.46,138.35,381.96,139.36z"/>
			</g>
			<g>
				<path class="st29" d="M386.75,118.62c-0.18-34.53-46.84-26.67-52.78-12.62c-0.58,1.37-3.22,0.67-4.4,1.07
					c-9.9,3.3-1.59,19.35,9.11,20.68c10.69,1.33,24.02,1.96,35.58-3.29c0,0,4.57-1.66,5.23,2.14c0.66,3.81,6.08-0.44,6.08-0.44
					L386.75,118.62z"/>
			</g>
			<g>
				<g>
					<path class="st29" d="M350.65,134.34c0.42,0.18,0.6,0.67,0.42,1.08c-0.18,0.41-0.67,0.6-1.09,0.42c-0.01,0-2.5-1.15-4.85,0.36
						c-0.38,0.25-0.9,0.14-1.14-0.25c-0.25-0.38-0.14-0.89,0.25-1.14C347.35,132.82,350.64,134.34,350.65,134.34z"/>
				</g>
				<g>
					<path class="st29" d="M370.07,134.5c0.4,0.22,0.55,0.72,0.33,1.11c-0.22,0.4-0.72,0.55-1.12,0.33c-0.01,0-2.4-1.35-4.87-0.03
						c-0.4,0.21-0.9,0.06-1.12-0.34c-0.21-0.4-0.06-0.9,0.34-1.12C366.9,132.72,370.07,134.5,370.07,134.5z"/>
				</g>
			</g>
			<g>
				<path class="st20" d="M355.68,144.12c-0.13-0.14-0.15-0.43-0.12-0.78c-0.17,0.68-0.22,1.25-0.01,1.48
					c0.65,0.7,3.28,0.36,3.39-0.14c0.02-0.08,0-0.27-0.05-0.51C358.28,144.55,356.24,144.72,355.68,144.12z"/>
			</g>
			<g>
				<g>
					<path class="st29" d="M363.04,149.79c0,2.73-2.21,4.95-4.94,4.95c-2.73,0-4.95-2.21-4.95-4.94c0-0.5,0.41-0.91,0.91-0.91
						l8.07-0.01C362.63,148.88,363.04,149.28,363.04,149.79z"/>
				</g>
				<g>
					<path class="st30" d="M354.56,148.89l7.07-0.01l0,0.84c0,0.44-0.36,0.79-0.79,0.79l-5.49,0.01c-0.44,0-0.79-0.36-0.79-0.79
						L354.56,148.89z"/>
				</g>
				<g>
					<path class="st31" d="M361.68,153.2c-0.9,0.95-2.17,1.54-3.58,1.54c-1.41,0-2.68-0.59-3.59-1.53c0.9-0.95,2.17-1.54,3.58-1.54
						C359.51,151.66,360.78,152.25,361.68,153.2z"/>
				</g>
			</g>
			<g>
				<path class="st29" d="M350.35,140.08c0,1.37-1.11,2.47-2.47,2.47c-1.37,0-2.47-1.11-2.47-2.47c0-1.37,1.11-2.47,2.47-2.47
					C349.25,137.61,350.35,138.72,350.35,140.08z"/>
			</g>
			<g>
				<path class="st29" d="M369.33,140.08c0,1.37-1.11,2.47-2.47,2.47c-1.37,0-2.47-1.11-2.47-2.47c0-1.37,1.11-2.47,2.47-2.47
					C368.22,137.61,369.33,138.72,369.33,140.08z"/>
			</g>
			<g>
				<path class="st31" d="M347.88,148.44c0,1.78-1.39,3.22-3.1,3.22c-1.71,0-3.1-1.44-3.1-3.22s1.39-3.22,3.1-3.22
					C346.49,145.21,347.88,146.66,347.88,148.44z"/>
			</g>
			<g>
				<path class="st31" d="M374.22,148.44c0,1.78-1.39,3.22-3.1,3.22c-1.71,0-3.1-1.44-3.1-3.22s1.39-3.22,3.1-3.22
					C372.83,145.21,374.22,146.66,374.22,148.44z"/>
			</g>
			<g>
				<path class="st22" d="M382.34,175.52c0,0,14.61,5.91,16.81,19.93c2.2,14.02,5.26,32.66,4.28,38.59
					c-0.98,5.94-12.88,8.2-17.92-2.83C380.45,220.18,378.17,181.98,382.34,175.52z"/>
			</g>
			<g>
				<path class="st32" d="M388.23,218.17c-3.11-1.09-4.97-0.89-6.04-0.06c0.53,3.33,1.15,6.37,1.85,8.89l18.05,5.01
					C402.08,232.01,399.17,222,388.23,218.17z"/>
			</g>
			<g>
				<path class="st22" d="M347.96,218.17c0,0-4.16,4.76-2.69,10.99c1.47,6.23,45.6,23.82,57.71,6.23
					c0.63-3.67-4.93-8.79-13.18-10.44C381.55,223.3,347.96,218.17,347.96,218.17z"/>
			</g>
			<g>
				<path class="st19" d="M345.44,217.16c-1.47-1.73-1.89-3.57-1.97-4.26c-0.11-0.9-3.71,0.01-1.9,3.02c0,0,0.25,1.58-0.46,1.78
					c-0.71,0.2-9.05-5.45-9.96-6.07c-0.91-0.62-1.79,0.18-1.77,0.6c0.02,0.42,1.35,1.3,2.96,2.52c1.61,1.22,3.41,2.6,3.45,2.84
					c0.04,0.24-0.25,0.55-1.4,0.19c-0.49-0.16-1.89-0.65-3.39-1.15c-2.1,1.3,0,2.27,0,2.27c1.61,0.58,3.1,1.12,3.44,1.34
					c0.74,0.49,0.15,1.05-0.48,1.01c-0.26-0.02-1.7-0.26-3.31-0.53c-0.76-0.05-1.51,0.24-1.18,1.23c0.13,0.4,0.36,0.64,0.6,0.79
					c0.31,0.08,0.63,0.16,0.93,0.24h0l0,0c1.6,0.41,2.99,0.78,3.15,0.93c0.37,0.34,0.24,1.03-1.09,1.27
					c-0.53,0.1-1.31,0.19-2.07,0.29l0,0l0,0c-0.14,0.02-0.27,0.03-0.4,0.05c-0.33,0.08-0.75,0.29-0.74,0.84
					c0,0.92,0.71,0.96,1.15,0.96h0c1.64,0,4.41,0.05,4.87,0.11c2.78,0.37,5.23,1.4,7.43,1.42c0.79,0.01,1.59-0.19,2.32-0.53
					c1.74-0.81,3.17-2.46,3.59-4.28C349.92,220.89,347.47,219.54,345.44,217.16z"/>
			</g>
		</g>
	</g>
	<rect x="159" y="61" class="st33" width="145.72" height="36"/>
	<text transform="matrix(1 0 0 1 159 76.606)" class="st3 st34 st35">Learning is fun</text>
</g>
</svg>
